<svg width="66" height="67" viewBox="0 0 66 67" fill="none" xmlns="http://www.w3.org/2000/svg">
<path d="M0.999984 32.2136H6.57762V65.3752C6.57762 65.9275 7.02537 66.3752 7.57762 66.3752H37.2217H50.8691H58.4223C58.9746 66.3752 59.4223 65.9275 59.4223 65.3752V32.2136H65C65.4097 32.2136 65.7778 31.9636 65.9292 31.5828C66.0806 31.2024 65.9844 30.7678 65.6865 30.4866L33.6865 0.273193C33.3008 -0.0910645 32.6992 -0.0910645 32.3135 0.273193L14.9609 16.6569V8.35181H16.1064C16.6587 8.35181 17.1064 7.90405 17.1064 7.35181C17.1064 6.79956 16.6587 6.35181 16.1064 6.35181H13.9609H6.4077H4.2617C3.70946 6.35181 3.2617 6.79956 3.2617 7.35181C3.2617 7.90405 3.70946 8.35181 4.2617 8.35181H5.4077V25.6768L0.31346 30.4866C0.0156088 30.7678 -0.0805826 31.2024 0.0707846 31.5828C0.222152 31.9636 0.590316 32.2136 0.999984 32.2136ZM49.8691 64.3752H38.2217V51.4001C38.2217 48.2986 40.7451 45.7751 43.8467 45.7751H44.2441C47.3457 45.7751 49.8691 48.2986 49.8691 51.4001V64.3752ZM57.4223 64.3752H51.8691V51.4001C51.8691 47.1956 48.4487 43.7751 44.2441 43.7751H43.8467C39.6421 43.7751 36.2217 47.1956 36.2217 51.4001V64.3752H8.57762V32.2136H57.4223V64.3752ZM7.4077 8.35181H12.9609V18.0891L7.4077 23.5164V8.35181ZM33 2.37573L62.4844 30.2136H58.4223H7.57762H3.51561L33 2.37573Z" fill="#697A21"/>
</svg>
<svg width="66" height="67" viewBox="0 0 66 67" fill="none" xmlns="http://www.w3.org/2000/svg">
<path d="M0.999984 32.2136H6.57762V65.3752C6.57762 65.9275 7.02537 66.3752 7.57762 66.3752H37.2217H50.8691H58.4223C58.9746 66.3752 59.4223 65.9275 59.4223 65.3752V32.2136H65C65.4097 32.2136 65.7778 31.9636 65.9292 31.5828C66.0806 31.2024 65.9844 30.7678 65.6865 30.4866L33.6865 0.273193C33.3008 -0.0910645 32.6992 -0.0910645 32.3135 0.273193L14.9609 16.6569V8.35181H16.1064C16.6587 8.35181 17.1064 7.90405 17.1064 7.35181C17.1064 6.79956 16.6587 6.35181 16.1064 6.35181H13.9609H6.4077H4.2617C3.70946 6.35181 3.2617 6.79956 3.2617 7.35181C3.2617 7.90405 3.70946 8.35181 4.2617 8.35181H5.4077V25.6768L0.31346 30.4866C0.0156088 30.7678 -0.0805826 31.2024 0.0707846 31.5828C0.222152 31.9636 0.590316 32.2136 0.999984 32.2136ZM49.8691 64.3752H38.2217V51.4001C38.2217 48.2986 40.7451 45.7751 43.8467 45.7751H44.2441C47.3457 45.7751 49.8691 48.2986 49.8691 51.4001V64.3752ZM57.4223 64.3752H51.8691V51.4001C51.8691 47.1956 48.4487 43.7751 44.2441 43.7751H43.8467C39.6421 43.7751 36.2217 47.1956 36.2217 51.4001V64.3752H8.57762V32.2136H57.4223V64.3752ZM7.4077 8.35181H12.9609V18.0891L7.4077 23.5164V8.35181ZM33 2.37573L62.4844 30.2136H58.4223H7.57762H3.51561L33 2.37573Z" fill="#697A21"/>
</svg>
